HIERARCHY
ROOT newVegas:Hips
{
	OFFSET 0.000000 96.479958 0.000000
	CHANNELS 6 Xposition Yposition Zposition Xrotation Yrotation Zrotation
	JOINT newVegas:Pelvis
	{
		OFFSET 0.000000 0.000000 0.000000
		CHANNELS 3 Xrotation Yrotation Zrotation
		JOINT newVegas:LeftUpLeg
		{
			OFFSET 18.735201 -5.666702 -4.541200
			CHANNELS 3 Xrotation Yrotation Zrotation
			JOINT newVegas:LeftLeg
			{
				OFFSET -0.021200 -31.938179 0.493100
				CHANNELS 3 Xrotation Yrotation Zrotation
				JOINT newVegas:LeftFoot
				{
					OFFSET 0.021200 -31.938179 -4.336299
					CHANNELS 3 Xrotation Yrotation Zrotation
					JOINT newVegas:LeftToeBase
					{
						OFFSET 0.943001 -26.722000 15.023500
						CHANNELS 3 Xrotation Yrotation Zrotation
						End Site
						{
							OFFSET 0.000000 30.670183 0.000000
						}
					}
				}
				JOINT newVegas:Left_PantLeg
				{
					OFFSET 0.663870 -9.044666 -1.108900
					CHANNELS 3 Xrotation Yrotation Zrotation
					End Site
					{
						OFFSET 1.415995 20.635357 0.000000
					}
				}
			}
		}
		JOINT newVegas:RightUpLeg
		{
			OFFSET -18.735201 -5.666702 -4.541200
			CHANNELS 3 Xrotation Yrotation Zrotation
			JOINT newVegas:RightLeg
			{
				OFFSET 0.018946 -31.938133 0.493100
				CHANNELS 3 Xrotation Yrotation Zrotation
				JOINT newVegas:RightFoot
				{
					OFFSET -0.018946 -31.938126 -4.336299
					CHANNELS 3 Xrotation Yrotation Zrotation
					JOINT newVegas:RightToeBase
					{
						OFFSET -0.943001 -26.722004 15.023500
						CHANNELS 3 Xrotation Yrotation Zrotation
						End Site
						{
							OFFSET 0.000000 30.670187 0.000000
						}
					}
				}
				JOINT newVegas:Right_PantLeg
				{
					OFFSET -0.661674 -9.044716 -1.108900
					CHANNELS 3 Xrotation Yrotation Zrotation
					End Site
					{
						OFFSET -1.415958 20.635269 0.000000
					}
				}
			}
		}
	}
	JOINT newVegas:Spine
	{
		OFFSET 0.000000 10.199997 -0.299500
		CHANNELS 3 Xrotation Yrotation Zrotation
		JOINT newVegas:Spine1
		{
			OFFSET 0.000000 11.900002 -1.516600
			CHANNELS 3 Xrotation Yrotation Zrotation
			JOINT newVegas:Spine2
			{
				OFFSET 0.000000 13.600006 -2.842500
				CHANNELS 3 Xrotation Yrotation Zrotation
				JOINT newVegas:Neck
				{
					OFFSET 0.000000 9.624100 -2.890100
					CHANNELS 3 Xrotation Yrotation Zrotation
					JOINT newVegas:Head
					{
						OFFSET 0.000000 14.068802 -1.351900
						CHANNELS 3 Xrotation Yrotation Zrotation
						JOINT newVegas:Hair_Back
						{
							OFFSET 0.000000 3.231903 -17.524799
							CHANNELS 3 Xrotation Yrotation Zrotation
							End Site
							{
								OFFSET 0.000000 19.849884 0.000000
							}
						}
						JOINT newVegas:Hair_Front
						{
							OFFSET 0.000000 31.260406 4.573800
							CHANNELS 3 Xrotation Yrotation Zrotation
							JOINT newVegas:Hair_Front1
							{
								OFFSET 0.000000 2.284103 11.993300
								CHANNELS 3 Xrotation Yrotation Zrotation
								JOINT newVegas:Hair_Front2
								{
									OFFSET 0.000000 2.284103 11.993300
									CHANNELS 3 Xrotation Yrotation Zrotation
									End Site
									{
										OFFSET 0.000000 12.208862 0.000000
									}
								}
							}
						}
						JOINT newVegas:Jowel
						{
							OFFSET 0.000000 -7.458206 6.864100
							CHANNELS 3 Xrotation Yrotation Zrotation
							End Site
							{
								OFFSET 0.000000 19.849884 0.000000
							}
						}
					}
				}
				JOINT newVegas:LeftShoulder
				{
					OFFSET 15.263000 10.923401 -0.547700
					CHANNELS 3 Xrotation Yrotation Zrotation
					JOINT newVegas:LeftArm
					{
						OFFSET 25.438599 -2.830597 -13.032500
						CHANNELS 3 Xrotation Yrotation Zrotation
						JOINT newVegas:LeftForeArm
						{
							OFFSET 29.960503 0.000000 0.000000
							CHANNELS 3 Xrotation Yrotation Zrotation
							JOINT newVegas:LeftHand
							{
								OFFSET 27.849251 0.000000 0.000000
								CHANNELS 3 Xrotation Yrotation Zrotation
								JOINT newVegas:LeftHandThumb1
								{
									OFFSET 4.487587 -3.305161 6.305391
									CHANNELS 3 Xrotation Yrotation Zrotation
									JOINT newVegas:LeftHandThumb2
									{
										OFFSET 5.480453 -3.164139 3.164143
										CHANNELS 3 Xrotation Yrotation Zrotation
										JOINT newVegas:LeftHandThumb3
										{
											OFFSET 5.159721 -2.978973 2.978967
											CHANNELS 3 Xrotation Yrotation Zrotation
											End Site
											{
												OFFSET 2.494507 5.926697 1.738678
											}
										}
									}
								}
								JOINT newVegas:LeftHandIndex1
								{
									OFFSET 18.578728 -0.527832 5.208049
									CHANNELS 3 Xrotation Yrotation Zrotation
									JOINT newVegas:LeftHandIndex2
									{
										OFFSET 3.192009 0.000000 0.000000
										CHANNELS 3 Xrotation Yrotation Zrotation
										JOINT newVegas:LeftHandIndex3
										{
											OFFSET 3.835129 0.000000 0.000000
											CHANNELS 3 Xrotation Yrotation Zrotation
											End Site
											{
												OFFSET -0.034599 3.816971 0.371180
											}
										}
									}
								}
								JOINT newVegas:LeftHandMiddle1
								{
									OFFSET 18.476105 0.000000 0.000000
									CHANNELS 3 Xrotation Yrotation Zrotation
									JOINT newVegas:LeftHandMiddle2
									{
										OFFSET 3.324875 0.000000 0.000000
										CHANNELS 3 Xrotation Yrotation Zrotation
										JOINT newVegas:LeftHandMiddle3
										{
											OFFSET 4.596550 0.000000 0.000000
											CHANNELS 3 Xrotation Yrotation Zrotation
											End Site
											{
												OFFSET 0.057701 4.578827 0.399218
											}
										}
									}
								}
								JOINT newVegas:LeftHandRing1
								{
									OFFSET 17.732719 0.121887 -4.201567
									CHANNELS 3 Xrotation Yrotation Zrotation
									JOINT newVegas:LeftHandRing2
									{
										OFFSET 2.733170 0.000000 0.000000
										CHANNELS 3 Xrotation Yrotation Zrotation
										JOINT newVegas:LeftHandRing3
										{
											OFFSET 3.178268 0.000000 0.000000
											CHANNELS 3 Xrotation Yrotation Zrotation
											End Site
											{
												OFFSET 0.119102 3.170624 0.185394
											}
										}
									}
								}
								JOINT newVegas:LeftHandPinky1
								{
									OFFSET 15.989624 -0.606689 -7.535461
									CHANNELS 3 Xrotation Yrotation Zrotation
									JOINT newVegas:LeftHandPinky2
									{
										OFFSET 2.538986 0.000000 0.000000
										CHANNELS 3 Xrotation Yrotation Zrotation
										JOINT newVegas:LeftHandPinky3
										{
											OFFSET 2.593102 0.000000 0.000000
											CHANNELS 3 Xrotation Yrotation Zrotation
											End Site
											{
												OFFSET -0.150902 2.584198 0.152708
											}
										}
									}
								}
							}
							JOINT newVegas:Left_Sleeve
							{
								OFFSET 0.267448 -0.649796 0.577675
								CHANNELS 3 Xrotation Yrotation Zrotation
								End Site
								{
									OFFSET 0.000000 15.991241 0.000000
								}
							}
							JOINT newVegas:Left_CapeC
							{
								OFFSET 15.715958 -8.608795 -6.935905
								CHANNELS 3 Xrotation Yrotation Zrotation
								JOINT newVegas:Left_CapeC1
								{
									OFFSET 0.000000 -8.688499 0.000000
									CHANNELS 3 Xrotation Yrotation Zrotation
									End Site
									{
										OFFSET 0.000000 8.688499 0.000000
									}
								}
							}
						}
						JOINT newVegas:Left_CapeB
						{
							OFFSET 26.118385 -8.608795 -7.079235
							CHANNELS 3 Xrotation Yrotation Zrotation
							JOINT newVegas:Left_CapeB1
							{
								OFFSET 0.000000 -8.688499 0.000000
								CHANNELS 3 Xrotation Yrotation Zrotation
								End Site
								{
									OFFSET 0.000000 8.688499 0.000000
								}
							}
						}
						JOINT newVegas:Left_CapeA
						{
							OFFSET 5.115639 -8.608795 -10.395809
							CHANNELS 3 Xrotation Yrotation Zrotation
							JOINT newVegas:Left_CapeA1
							{
								OFFSET 0.000000 -8.688499 0.000000
								CHANNELS 3 Xrotation Yrotation Zrotation
								End Site
								{
									OFFSET 0.000000 8.688499 0.000000
								}
							}
						}
					}
				}
				JOINT newVegas:RightShoulder
				{
					OFFSET -15.263000 10.923401 -0.547700
					CHANNELS 3 Xrotation Yrotation Zrotation
					JOINT newVegas:RightArm
					{
						OFFSET -25.438599 -2.830597 -13.032500
						CHANNELS 3 Xrotation Yrotation Zrotation
						JOINT newVegas:RightForeArm
						{
							OFFSET -29.960503 0.000000 0.000000
							CHANNELS 3 Xrotation Yrotation Zrotation
							JOINT newVegas:RightHand
							{
								OFFSET -27.849251 0.000000 0.000000
								CHANNELS 3 Xrotation Yrotation Zrotation
								JOINT newVegas:RightHandThumb1
								{
									OFFSET -4.487587 -3.305161 6.305391
									CHANNELS 3 Xrotation Yrotation Zrotation
									JOINT newVegas:RightHandThumb2
									{
										OFFSET -5.480453 -3.164139 3.164143
										CHANNELS 3 Xrotation Yrotation Zrotation
										JOINT newVegas:RightHandThumb3
										{
											OFFSET -5.159721 -2.978973 2.978967
											CHANNELS 3 Xrotation Yrotation Zrotation
											End Site
											{
												OFFSET -2.494507 5.926697 1.738678
											}
										}
									}
								}
								JOINT newVegas:RightHandIndex1
								{
									OFFSET -18.578728 -0.527832 5.208049
									CHANNELS 3 Xrotation Yrotation Zrotation
									JOINT newVegas:RightHandIndex2
									{
										OFFSET -3.192009 0.000000 0.000000
										CHANNELS 3 Xrotation Yrotation Zrotation
										JOINT newVegas:RightHandIndex3
										{
											OFFSET -3.835129 0.000000 0.000000
											CHANNELS 3 Xrotation Yrotation Zrotation
											End Site
											{
												OFFSET 0.034599 3.816971 0.371180
											}
										}
									}
								}
								JOINT newVegas:RightHandMiddle1
								{
									OFFSET -18.476105 0.000000 0.000000
									CHANNELS 3 Xrotation Yrotation Zrotation
									JOINT newVegas:RightHandMiddle2
									{
										OFFSET -3.324875 0.000000 0.000000
										CHANNELS 3 Xrotation Yrotation Zrotation
										JOINT newVegas:RightHandMiddle3
										{
											OFFSET -4.596550 0.000000 0.000000
											CHANNELS 3 Xrotation Yrotation Zrotation
											End Site
											{
												OFFSET -0.057701 4.578827 0.399218
											}
										}
									}
								}
								JOINT newVegas:RightHandRing1
								{
									OFFSET -17.732719 0.121887 -4.201567
									CHANNELS 3 Xrotation Yrotation Zrotation
									JOINT newVegas:RightHandRing2
									{
										OFFSET -2.733170 0.000000 0.000000
										CHANNELS 3 Xrotation Yrotation Zrotation
										JOINT newVegas:RightHandRing3
										{
											OFFSET -3.178268 0.000000 0.000000
											CHANNELS 3 Xrotation Yrotation Zrotation
											End Site
											{
												OFFSET -0.119102 3.170624 0.185394
											}
										}
									}
								}
								JOINT newVegas:RightHandPinky1
								{
									OFFSET -15.989624 -0.606689 -7.535461
									CHANNELS 3 Xrotation Yrotation Zrotation
									JOINT newVegas:RightHandPinky2
									{
										OFFSET -2.538986 0.000000 0.000000
										CHANNELS 3 Xrotation Yrotation Zrotation
										JOINT newVegas:RightHandPinky3
										{
											OFFSET -2.593102 0.000000 0.000000
											CHANNELS 3 Xrotation Yrotation Zrotation
											End Site
											{
												OFFSET 0.150902 2.584198 0.152708
											}
										}
									}
								}
							}
							JOINT newVegas:Right_CapeC
							{
								OFFSET -15.715958 -8.608795 -6.935905
								CHANNELS 3 Xrotation Yrotation Zrotation
								JOINT newVegas:Right_CapeC1
								{
									OFFSET 0.000000 -8.688499 0.000000
									CHANNELS 3 Xrotation Yrotation Zrotation
									End Site
									{
										OFFSET 0.000000 8.688499 0.000000
									}
								}
							}
							JOINT newVegas:Right_Sleeve
							{
								OFFSET -0.267448 -0.649994 0.577675
								CHANNELS 3 Xrotation Yrotation Zrotation
								End Site
								{
									OFFSET 0.000000 15.991302 0.000000
								}
							}
						}
						JOINT newVegas:Right_CapeA
						{
							OFFSET -5.115540 -8.608795 -10.395824
							CHANNELS 3 Xrotation Yrotation Zrotation
							JOINT newVegas:Right_CapeA1
							{
								OFFSET 0.000000 -8.688499 0.000000
								CHANNELS 3 Xrotation Yrotation Zrotation
								End Site
								{
									OFFSET 0.000000 8.688499 0.000000
								}
							}
						}
						JOINT newVegas:Right_CapeB
						{
							OFFSET -26.118187 -8.608795 -7.079266
							CHANNELS 3 Xrotation Yrotation Zrotation
							JOINT newVegas:Right_CapeB1
							{
								OFFSET 0.000000 -8.688499 0.000000
								CHANNELS 3 Xrotation Yrotation Zrotation
								End Site
								{
									OFFSET 0.000000 8.688499 0.000000
								}
							}
						}
					}
				}
				JOINT newVegas:Left_Collar
				{
					OFFSET 18.625099 8.655502 8.828100
					CHANNELS 3 Xrotation Yrotation Zrotation
					JOINT newVegas:Left_Collar1
					{
						OFFSET 14.783401 10.540405 -1.259500
						CHANNELS 3 Xrotation Yrotation Zrotation
						End Site
						{
							OFFSET 0.000000 18.199875 0.000000
						}
					}
				}
				JOINT newVegas:Collar_Back
				{
					OFFSET 0.000000 15.630707 -20.132601
					CHANNELS 3 Xrotation Yrotation Zrotation
					End Site
					{
						OFFSET 0.000000 22.523010 0.000000
					}
				}
				JOINT newVegas:Left_Peck
				{
					OFFSET 17.239599 -5.132599 25.482599
					CHANNELS 3 Xrotation Yrotation Zrotation
					End Site
					{
						OFFSET 0.000000 22.523010 0.000000
					}
				}
				JOINT newVegas:Right_Peck
				{
					OFFSET -17.239599 -5.132202 25.482599
					CHANNELS 3 Xrotation Yrotation Zrotation
					End Site
					{
						OFFSET 0.000000 22.523010 0.000000
					}
				}
				JOINT newVegas:Right_Collar
				{
					OFFSET -18.625099 8.655792 8.828100
					CHANNELS 3 Xrotation Yrotation Zrotation
					JOINT newVegas:Right_Collar1
					{
						OFFSET -14.783401 10.539993 -1.259500
						CHANNELS 3 Xrotation Yrotation Zrotation
						End Site
						{
							OFFSET 0.000000 18.199631 0.000000
						}
					}
				}
			}
		}
		JOINT newVegas:Belly
		{
			OFFSET 0.000000 -6.540398 9.014299
			CHANNELS 3 Xrotation Yrotation Zrotation
			End Site
			{
				OFFSET 0.000000 11.566666 0.000000
			}
		}
	}
	JOINT newVegas:ElvisFacialAnim_Joint
	{
		OFFSET 1.000000 -95.330101 -8.825800
		CHANNELS 3 Xrotation Yrotation Zrotation
		End Site
		{
			OFFSET 0.000000 35.315800 0.000000
		}
	}
}
MOTION
Frames: 4
Frame Time: 0.033333
-0.013814 92.544151 3.936340 -1.158489 0.064899 1.374950 -0.000000 -0.000000 -0.000000 -31.832414 11.034267 9.426936 59.842320 -7.444192 -3.399016 0.729730 0.198971 -0.826499 -0.000000 0.000001 -0.000000 -0.000002 -0.000000 -0.000000 -23.995756 -5.052354 -2.270452 37.235814 1.489011 -3.803379 -13.722274 -0.520756 3.578431 -0.000000 -0.000000 -0.000000 -0.000000 0.000000 -0.000001 20.539496 -8.667164 2.358959 1.473138 -2.416866 -0.531240 1.488725 -2.385880 -0.464018 1.721772 0.256351 -0.736175 1.721753 0.256356 -0.736175 -0.000002 0.000001 -0.000000 1.721748 0.256359 -0.736176 1.721749 0.256357 -0.736174 -0.000001 -0.000001 -0.000000 -0.000002 0.000001 -0.000000 -1.062426 -14.212008 0.092168 -19.635969 -13.172151 -46.867952 -85.042255 -62.025638 -79.902456 -0.152924 -6.024785 -2.180815 4.766496 -0.870685 -14.442462 15.732318 12.674832 8.828577 -0.000001 -0.000003 -0.000005 -3.609597 -7.817628 -81.260509 0.002870 -4.390545 -67.459893 0.000001 -0.000001 0.000000 -5.482388 2.419660 -86.651605 -0.067799 -4.899646 -76.606903 -0.000000 -0.000000 -0.000003 -4.486635 3.914136 -90.411631 -1.107806 -0.681228 -62.311064 -0.000000 0.000001 0.000001 -8.882715 8.262628 -85.751201 -0.044350 -0.067933 -74.105640 -0.000000 -0.000005 -0.000000 -0.000000 -0.000000 -0.000002 -0.000000 -0.000000 -0.000002 0.000000 -0.000000 -0.000002 0.000000 -0.000001 0.000003 0.000001 -0.000001 0.000000 0.000000 -0.000001 0.000003 -0.000001 -0.000000 0.000002 1.206613 -0.842839 2.191710 3.756631 1.343728 51.662246 -81.679548 68.182555 76.293616 -1.265529 10.314916 14.317110 24.918359 -21.323366 30.343057 9.041920 8.262097 -18.001790 0.000002 -0.000000 -0.000001 -0.063508 -3.017279 61.424410 0.006470 4.395155 66.609193 -0.000000 0.000000 0.000001 -1.221752 -0.129481 68.273697 -0.078700 4.899222 84.501734 0.000001 0.000001 0.000001 0.882091 -4.623037 79.192669 -0.721575 1.141075 73.254387 0.000001 -0.000001 0.000002 -3.962366 0.099740 86.766830 -0.027273 0.052914 54.416114 0.000001 0.000003 0.000001 -0.000001 -0.000000 -0.000001 0.000000 -0.000000 -0.000001 -0.000001 -0.000000 0.000001 -0.000000 -0.000001 -0.000001 -0.000001 0.000000 0.000001 -0.000000 -0.000001 -0.000001 -0.000000 0.000000 0.000002 0.000001 -0.000000 0.000000 0.000001 -0.000000 0.000000 0.000001 -0.000000 0.000000 0.000001 -0.000000 0.000000 0.000001 -0.000000 0.000000 0.000001 -0.000000 0.000000 0.000001 -0.000000 0.000000 0.000001 0.000001 -0.000000 -0.000000 -0.000000 -0.000000 
-0.164446 89.945374 9.566091 -3.450325 -10.733766 0.190535 0.000000 -0.000001 -0.000000 -45.335787 7.302899 2.337476 62.189829 -0.247208 0.409128 14.552712 -0.350127 4.729807 -0.000000 -0.000000 0.000000 0.000001 0.000000 -0.000000 -24.388179 -2.035334 -0.079252 48.282447 3.869154 -3.887435 -21.494602 -0.369344 2.277571 -0.000000 -0.000000 -0.000000 -0.000003 0.000000 -0.000000 20.055988 -2.582510 3.067680 1.304563 -0.875103 -0.298644 1.331555 -0.851526 -0.271019 1.363682 0.231268 -0.441451 1.363687 0.231268 -0.441452 -0.000000 0.000001 -0.000000 1.363691 0.231263 -0.441449 1.363756 0.231269 -0.441451 0.000001 -0.000001 0.000000 -0.000000 0.000001 -0.000000 -0.692992 -10.396446 -4.579814 -13.864427 -4.286853 -44.411738 -86.210805 -69.501546 -82.813701 -0.473025 -2.823210 -6.853568 4.766493 -0.870681 -14.442461 15.732318 12.674835 8.828574 -0.000000 0.000000 -0.000003 -3.609598 -7.817628 -81.260509 0.002871 -4.390544 -67.459900 0.000000 0.000001 0.000000 -5.482389 2.419660 -86.651612 -0.067797 -4.899646 -76.606903 -0.000000 -0.000000 -0.000002 -4.486639 3.914133 -90.411631 -1.107806 -0.681229 -62.311064 -0.000000 0.000001 -0.000000 -8.882722 8.262627 -85.751201 -0.044357 -0.067935 -74.105640 0.000001 -0.000005 -0.000001 -0.000000 0.000000 0.000001 -0.000000 0.000000 0.000001 -0.000001 -0.000000 0.000001 0.000001 -0.000001 -0.000003 0.000002 -0.000001 -0.000006 0.000001 -0.000001 -0.000003 0.000001 0.000000 -0.000004 1.248364 -0.356715 3.214925 5.178510 0.217499 48.965681 -106.985133 67.882928 103.599251 -0.510440 2.109661 12.174432 24.918362 -21.323364 30.343054 9.041927 8.262101 -18.001793 0.000001 -0.000003 -0.000001 -0.063508 -3.017279 61.424410 0.006470 4.395153 66.609200 0.000000 0.000001 -0.000001 -1.221753 -0.129480 68.273697 -0.078702 4.899220 84.501741 0.000000 -0.000000 0.000001 0.882091 -4.623037 79.192669 -0.721582 1.141077 73.254387 0.000000 -0.000003 0.000002 -3.962366 0.099742 86.766830 -0.027273 0.052911 54.416117 0.000002 -0.000002 -0.000003 -0.000000 -0.000001 0.000001 0.000000 0.000002 0.000000 0.000000 -0.000001 0.000001 -0.000002 0.000000 -0.000001 -0.000002 0.000001 0.000000 -0.000002 0.000000 -0.000001 -0.000002 0.000001 0.000002 0.000002 -0.000000 0.000000 0.000002 -0.000000 0.000000 0.000002 -0.000000 0.000000 0.000002 -0.000000 0.000000 0.000002 -0.000000 0.000000 0.000002 -0.000000 0.000000 0.000002 -0.000000 0.000000 -0.000000 -0.000000 0.000000 0.000000 -0.000001 -0.000000 
-0.936795 86.745323 16.785372 -4.554121 -24.972246 -1.349478 -0.000000 0.000002 -0.000000 -55.523482 2.739069 0.283585 55.785696 2.176761 3.892479 29.419944 0.562103 6.754459 -0.000001 -0.000001 -0.000002 0.000000 -0.000000 -0.000000 -25.373164 6.257575 3.403016 58.749503 4.491762 -4.252814 -29.997299 -0.881507 2.702298 -0.000000 -0.000000 0.000000 -0.000000 0.000001 -0.000000 18.544525 3.181794 4.052620 1.122874 0.539525 -0.030186 1.121308 0.535016 -0.060200 0.838796 0.400276 -0.149632 0.838786 0.400268 -0.149632 0.000000 -0.000003 0.000001 0.838801 0.400270 -0.149628 0.838878 0.400255 -0.149625 -0.000002 0.000002 -0.000001 0.000000 -0.000003 0.000000 -0.113742 -6.584086 -8.143366 -8.767302 -0.719712 -48.273844 -69.564684 -74.548428 -65.053140 -0.292787 2.185144 -14.699040 4.766494 -0.870685 -14.442462 15.732318 12.674832 8.828576 0.000001 0.000001 -0.000004 -3.609597 -7.817630 -81.260502 0.002872 -4.390548 -67.459893 0.000000 -0.000001 -0.000000 -5.482386 2.419660 -86.651605 -0.067797 -4.899647 -76.606903 -0.000001 -0.000002 -0.000002 -4.486636 3.914132 -90.411631 -1.107808 -0.681227 -62.311064 0.000002 -0.000001 0.000001 -8.882717 8.262622 -85.751201 -0.044350 -0.067932 -74.105640 0.000002 -0.000003 0.000000 0.000000 0.000000 -0.000001 0.000000 0.000000 -0.000001 -0.000001 0.000000 -0.000001 0.000001 -0.000002 -0.000000 0.000001 -0.000002 -0.000002 0.000001 -0.000002 -0.000000 0.000000 -0.000002 -0.000001 1.271588 0.787095 5.834947 5.818549 4.140043 47.067667 -114.275041 73.661753 110.745985 -0.345525 -2.062921 7.977383 24.918362 -21.323361 30.343057 9.041923 8.262108 -18.001793 0.000000 -0.000003 -0.000001 -0.063510 -3.017269 61.424410 0.006469 4.395160 66.609200 -0.000000 -0.000001 0.000004 -1.221752 -0.129478 68.273704 -0.078699 4.899220 84.501734 -0.000000 0.000000 -0.000002 0.882090 -4.623032 79.192669 -0.721580 1.141078 73.254387 0.000001 -0.000001 -0.000002 -3.962366 0.099742 86.766830 -0.027271 0.052913 54.416114 -0.000000 0.000002 -0.000001 0.000001 0.000002 0.000001 -0.000000 0.000001 0.000000 0.000001 0.000001 0.000001 0.000000 0.000001 -0.000001 0.000000 0.000002 -0.000001 0.000000 0.000001 -0.000001 0.000000 0.000002 0.000001 -0.000001 0.000001 -0.000001 -0.000001 0.000001 -0.000001 -0.000001 0.000001 -0.000001 -0.000001 0.000001 -0.000001 -0.000001 0.000001 -0.000001 -0.000001 0.000001 -0.000001 -0.000001 0.000001 -0.000001 -0.000000 -0.000000 0.000000 -0.000000 0.000002 -0.000000 
-1.951073 84.084320 23.580238 -4.742467 -39.793567 -2.024118 0.000000 0.000001 -0.000000 -56.934381 -2.985702 4.125216 43.622366 -1.275261 6.098883 41.806027 1.089833 4.498184 0.000002 -0.000002 -0.000000 0.000001 -0.000000 0.000000 -26.574415 15.971579 5.253809 65.829930 6.156140 -4.435108 -37.712227 -1.399370 3.108587 -0.000000 -0.000001 -0.000000 0.000001 -0.000001 -0.000000 16.837690 5.837137 4.571860 0.915408 1.183947 0.206243 0.892381 1.179297 0.186880 0.391250 0.505489 -0.131686 0.391255 0.505500 -0.131683 0.000000 0.000001 -0.000001 0.391327 0.505493 -0.131684 0.391262 0.505519 -0.131689 -0.000000 -0.000001 0.000000 0.000000 0.000001 0.000000 0.530502 -3.871645 -10.623400 -4.379951 1.168770 -53.292305 -45.913495 -75.223059 -39.849158 0.549339 5.632567 -22.310709 4.766498 -0.870682 -14.442466 15.732316 12.674825 8.828568 0.000003 0.000002 0.000001 -3.609593 -7.817628 -81.260502 0.002871 -4.390541 -67.459900 0.000001 0.000001 0.000000 -5.482390 2.419657 -86.651605 -0.067798 -4.899646 -76.606903 -0.000003 0.000001 0.000002 -4.486636 3.914133 -90.411631 -1.107809 -0.681224 -62.311064 -0.000002 0.000003 0.000001 -8.882715 8.262620 -85.751201 -0.044348 -0.067935 -74.105640 0.000001 -0.000002 -0.000000 0.000002 0.000000 -0.000003 0.000002 0.000000 -0.000003 0.000001 0.000000 -0.000003 0.000001 0.000000 -0.000001 0.000001 0.000001 -0.000003 0.000001 0.000000 -0.000001 -0.000000 0.000001 -0.000001 1.193322 1.963503 8.553551 8.672566 6.176985 45.089675 -104.634120 81.526504 100.170161 0.028395 -2.539766 6.101604 24.918361 -21.323361 30.343057 9.041924 8.262104 -18.001793 -0.000000 -0.000003 -0.000003 -0.063508 -3.017274 61.424410 0.006471 4.395159 66.609193 0.000001 0.000001 0.000001 -1.221750 -0.129481 68.273697 -0.078701 4.899217 84.501734 0.000002 0.000000 -0.000002 0.882091 -4.623034 79.192669 -0.721577 1.141077 73.254387 0.000002 0.000003 -0.000002 -3.962366 0.099741 86.766830 -0.027272 0.052907 54.416114 0.000002 -0.000002 -0.000001 0.000001 -0.000003 0.000001 -0.000000 -0.000001 0.000003 0.000001 -0.000003 -0.000000 -0.000000 -0.000003 -0.000005 -0.000000 -0.000002 -0.000004 -0.000000 -0.000003 -0.000005 -0.000000 -0.000002 -0.000004 0.000001 -0.000003 0.000001 0.000001 -0.000003 0.000001 0.000001 -0.000003 0.000001 0.000001 -0.000003 0.000001 0.000001 -0.000003 0.000001 0.000001 -0.000003 0.000001 0.000001 -0.000003 0.000001 0.000001 -0.000003 0.000000 0.000000 0.000001 -0.000000 
